<svg xmlns="http://www.w3.org/2000/svg" viewBox="0 0 500 500"><g id="freepik--background-complete--inject-6"><rect y="382.4" width="500" height="0.25" style="fill:#ebebeb"></rect><rect x="416.78" y="398.49" width="33.12" height="0.25" style="fill:#ebebeb"></rect><rect x="322.53" y="401.21" width="8.69" height="0.25" style="fill:#ebebeb"></rect><rect x="396.59" y="389.21" width="19.19" height="0.25" style="fill:#ebebeb"></rect><rect x="52.46" y="390.89" width="43.19" height="0.25" style="fill:#ebebeb"></rect><rect x="104.56" y="390.89" width="6.33" height="0.25" style="fill:#ebebeb"></rect><rect x="131.47" y="395.11" width="93.68" height="0.25" style="fill:#ebebeb"></rect><path d="M237,337.8H43.91a5.71,5.71,0,0,1-5.7-5.71V60.66A5.71,5.71,0,0,1,43.91,55H237a5.71,5.71,0,0,1,5.71,5.71V332.09A5.71,5.71,0,0,1,237,337.8ZM43.91,55.2a5.46,5.46,0,0,0-5.45,5.46V332.09a5.46,5.46,0,0,0,5.45,5.46H237a5.47,5.47,0,0,0,5.46-5.46V60.66A5.47,5.47,0,0,0,237,55.2Z" style="fill:#ebebeb"></path><path d="M453.31,337.8H260.21a5.72,5.72,0,0,1-5.71-5.71V60.66A5.72,5.72,0,0,1,260.21,55h193.1A5.71,5.71,0,0,1,459,60.66V332.09A5.71,5.71,0,0,1,453.31,337.8ZM260.21,55.2a5.47,5.47,0,0,0-5.46,5.46V332.09a5.47,5.47,0,0,0,5.46,5.46h193.1a5.47,5.47,0,0,0,5.46-5.46V60.66a5.47,5.47,0,0,0-5.46-5.46Z" style="fill:#ebebeb"></path><rect x="194.1" y="83.46" width="110.55" height="41.41" style="fill:#ebebeb"></rect><rect x="227.71" y="85.57" width="43.35" height="18.59" style="fill:#e0e0e0"></rect><rect x="245.19" y="111.15" width="8.38" height="8.38" style="fill:#e0e0e0"></rect><rect x="201.08" y="94.86" width="18.2" height="16.29" style="fill:#e0e0e0"></rect><rect x="279.48" y="94.86" width="18.2" height="16.29" style="fill:#e0e0e0"></rect><rect x="279.48" y="87.68" width="18.2" height="2.9" style="fill:#fafafa"></rect><rect x="201.08" y="87.68" width="18.2" height="2.9" style="fill:#fafafa"></rect><rect x="234.92" y="113.89" width="7.19" height="2.9" style="fill:#fafafa"></rect><rect x="256.65" y="113.89" width="7.19" height="2.9" style="fill:#fafafa"></rect><rect x="41.43" y="168.56" width="157.13" height="110.23" transform="translate(343.67 103.69) rotate(90)" style="fill:#e0e0e0"></rect><rect x="67.38" y="147.62" width="105.23" height="152.12" style="fill:#ebebeb"></rect><polygon points="97.34 147.62 67.38 179.67 67.38 155.55 74.79 147.62 97.34 147.62" style="fill:#f5f5f5"></polygon><polygon points="116.17 147.62 67.38 199.81 67.38 187.76 104.9 147.62 116.17 147.62" style="fill:#f5f5f5"></polygon><polygon points="139.8 147.62 67.38 225.08 67.38 219.06 134.16 147.62 139.8 147.62" style="fill:#f5f5f5"></polygon><polygon points="172.61 266.01 172.61 290.13 163.63 299.74 141.08 299.74 172.61 266.01" style="fill:#f5f5f5"></polygon><polygon points="172.61 245.86 172.61 257.93 133.53 299.74 122.24 299.74 172.61 245.86" style="fill:#f5f5f5"></polygon><polygon points="172.61 220.6 172.61 226.63 104.27 299.74 98.63 299.74 172.61 220.6" style="fill:#f5f5f5"></polygon><rect x="64.88" y="172.19" width="110.23" height="3" style="fill:#e0e0e0"></rect><rect x="118.49" y="173.69" width="3" height="126.99" style="fill:#e0e0e0"></rect><rect x="171.44" y="168.56" width="157.13" height="110.23" transform="translate(473.68 -26.32) rotate(90)" style="fill:#e0e0e0"></rect><rect x="197.39" y="147.62" width="105.23" height="152.12" style="fill:#ebebeb"></rect><polygon points="227.35 147.62 197.39 179.67 197.39 155.55 204.8 147.62 227.35 147.62" style="fill:#f5f5f5"></polygon><polygon points="246.18 147.62 197.39 199.81 197.39 187.76 234.91 147.62 246.18 147.62" style="fill:#f5f5f5"></polygon><polygon points="269.81 147.62 197.39 225.08 197.39 219.06 264.17 147.62 269.81 147.62" style="fill:#f5f5f5"></polygon><polygon points="302.62 266.01 302.62 290.13 293.64 299.74 271.09 299.74 302.62 266.01" style="fill:#f5f5f5"></polygon><polygon points="302.62 245.86 302.62 257.93 263.54 299.74 252.25 299.74 302.62 245.86" style="fill:#f5f5f5"></polygon><polygon points="302.62 220.6 302.62 226.63 234.28 299.74 228.64 299.74 302.62 220.6" style="fill:#f5f5f5"></polygon><rect x="194.88" y="172.19" width="110.23" height="3" style="fill:#e0e0e0"></rect><rect x="248.5" y="173.69" width="3" height="126.99" style="fill:#e0e0e0"></rect><rect x="301.44" y="168.56" width="157.13" height="110.23" transform="translate(603.69 -156.33) rotate(90)" style="fill:#e0e0e0"></rect><rect x="327.39" y="147.62" width="105.23" height="152.12" style="fill:#ebebeb"></rect><polygon points="357.35 147.62 327.39 179.67 327.39 155.55 334.81 147.62 357.35 147.62" style="fill:#f5f5f5"></polygon><polygon points="376.19 147.62 327.39 199.81 327.39 187.76 364.91 147.62 376.19 147.62" style="fill:#f5f5f5"></polygon><polygon points="399.81 147.62 327.39 225.08 327.39 219.06 394.18 147.62 399.81 147.62" style="fill:#f5f5f5"></polygon><polygon points="432.62 266.01 432.62 290.13 423.64 299.74 401.1 299.74 432.62 266.01" style="fill:#f5f5f5"></polygon><polygon points="432.62 245.86 432.62 257.93 393.54 299.74 382.25 299.74 432.62 245.86" style="fill:#f5f5f5"></polygon><polygon points="432.62 220.6 432.62 226.63 364.29 299.74 358.64 299.74 432.62 220.6" style="fill:#f5f5f5"></polygon><rect x="324.89" y="172.19" width="110.23" height="3" style="fill:#e0e0e0"></rect><rect x="378.51" y="173.69" width="3" height="126.99" style="fill:#e0e0e0"></rect></g><g id="freepik--Characters--inject-6"><g id="freepik--group--inject-6"><polygon points="269.36 260.19 260.55 285.34 249.67 280.6 260.36 259.49 269.36 260.19" style="fill:#eec1bb"></polygon><path d="M267.74,264.81l-9.37-1.4a15.78,15.78,0,0,0,.42-2.1l-1-6.42a1,1,0,0,1,.89-1.19.59.59,0,0,1,.23,0c2.79.23,4.81.53,8.32.76,2.17.14,8.7.34,11.69.53s3.18,3.17,1.94,3.36c-5.56.84-9.79,2.22-11.65,3.68A19.51,19.51,0,0,0,267.74,264.81Z" style="fill:#eec1bb"></path><path d="M264.42,276.62A1002.79,1002.79,0,0,0,242.48,380q-.93,5.84-1.82,11.86l-27.33-9.48s5.51-20.58,13-44.62c7.68-24.73,17.42-53.13,25.35-66.55Z" style="fill:#0057E4"></path><path d="M242.48,380q-.93,5.84-1.82,11.86l-27.33-9.48s5.51-20.58,13-44.62a146.8,146.8,0,0,1,10.61,41.42A21.46,21.46,0,0,1,242.48,380Z" style="opacity:0.2;isolation:isolate"></path><polygon points="142.41 411.27 155.26 385.52 166.47 389.41 151.44 411.27 142.41 411.27" style="fill:#eec1bb"></polygon><path d="M143.67,406.54l9.45.68a14.73,14.73,0,0,0-.25,2.12l1.48,6.33a1.05,1.05,0,0,1-.79,1.26l-.23,0c-2.8,0-4.85-.16-8.36-.11-2.17,0-8.7.33-11.69.37s-3.42-2.92-2.2-3.2c5.48-1.27,9.59-3,11.33-4.58A19,19,0,0,0,143.67,406.54Z" style="fill:#eec1bb"></path><path d="M249.38,381.19l-5.47,34.75s-23.11.29-31-2.38c-1.94-.66-4-3.89-6.14-8.4-6.55-13.88-13.67-39.9-19.44-40.7-7.65-1-27.69,42.08-27.69,42.08l-16.27-5.82s18.39-61.54,43.83-67.64c19.78-4.75,43.12,44.09,43.12,44.09l18,3.79Z" style="fill:#0057E4"></path><path d="M249.38,381.19l-5.47,34.75s-23.11.29-31-2.38c-1.94-.66-4-3.89-6.14-8.4,3.44-9,10.36-16.7,10.36-16.7a61.81,61.81,0,0,1,28.35-7.88l2.83.38Z" style="opacity:0.2;isolation:isolate"></path><path d="M270.4,395.65s1.94-22,10.48-39.07l7.84,1.72s-2.12,35.06-1.3,43.13S270.28,405.71,270.4,395.65Z" style="fill:#0057E4"></path><path d="M270.4,395.65s1.94-22,10.48-39.07l7.84,1.72s-2.12,35.06-1.3,43.13S270.28,405.71,270.4,395.65Z" style="opacity:0.2;isolation:isolate"></path><path d="M250.92,379.21l-.14.49-10.2,36.72s-15.29,4.58-27.69,2.82l6.47-26.4h0l.84-3.42S230.93,380.23,250.92,379.21Z" style="fill:#0057E4"></path><path d="M250.92,379.21l-.14.49-1.4,3.25c-15.16-.08-30,9.89-30,9.89h0l.84-3.42S230.93,380.23,250.92,379.21Z" style="fill:#263238"></path><path d="M292.61,392l3.47,22.9s-18,8-52.17,1.07l5.47-33S256.54,382,292.61,392Z" style="fill:#eec1bb"></path><path d="M251.75,379.5s25.46,3.27,34.36,12.56c0,0-9.65-4.35-18.89-4.35-5,0-16.09,11.61-16.09,11.61Z" style="fill:#0057E4"></path><path d="M263.26,388.36s25.32-.05,31.25,12.36c0,0-3.73-15.64-34-14.81Z" style="fill:#263238"></path><path d="M288.72,399.24s1,8,4.69,10.44c1.3-2,4.25-3.2,7.49-3.88a44.15,44.15,0,0,1,7-.79c.76,0,1.47,0,2.11,0l-9.61-7.7-.44.2c-.43.18-.87.37-1.32.52a8.79,8.79,0,0,1-3.33.57,7.81,7.81,0,0,1-2.28-.18c-.51-.22-1-.76-1.51-2C289.73,395.75,288.72,399.24,288.72,399.24Z" style="fill:#eec1bb"></path><path d="M293,398.38a15.94,15.94,0,0,0,7.87,7.42,44.15,44.15,0,0,1,7-.79L300,397.47c-.43.18-.87.37-1.32.52a8.79,8.79,0,0,1-3.33.57A7.81,7.81,0,0,1,293,398.38Z" style="opacity:0.2;isolation:isolate"></path><path d="M295.69,410.3S282.31,393,249.38,382.9l1.54-3.69s37.62,13.17,46.68,28.59Z" style="fill:#263238"></path><path d="M249.38,382.9s28.75,4.54,46.31,27.4l.39,4.57s-20.23,11.73-52.17,1.76Z" style="fill:#0057E4"></path><polygon points="251.75 379.5 247.63 378.85 240.58 416.42 245.85 417.21 251.75 379.5" style="fill:#263238"></polygon><path d="M317,380.58s-9.63,1.84-11.42,7.93,15.2.08,15.2.08Z" style="fill:#263238"></path><path d="M303.25,405.15a8.79,8.79,0,0,1-6.57-8.38,9.78,9.78,0,0,1,2.43-6.79,10,10,0,0,1,.72-.74c4.73-4.36,14.23-8.57,20-4a9.54,9.54,0,0,1-1.92,16.12C311.62,404.42,308.07,406.5,303.25,405.15Z" style="fill:#eec1bb"></path><path d="M311,393.11a.88.88,0,0,1-1.23-.09c-.18-.33.08-.81.57-1.08s1.05-.24,1.23.08S311.53,392.83,311,393.11Z" style="fill:#263238"></path><path d="M307.91,387.52a.89.89,0,0,1-1.22-.09c-.18-.32.08-.81.57-1.09s1.05-.23,1.22.09S308.38,387.25,307.91,387.52Z" style="fill:#263238"></path><path d="M308.66,389.43a20.23,20.23,0,0,1-5.55,0,3.28,3.28,0,0,0,.88,2.63Z" style="fill:#d4827d"></path><path d="M309.71,383.74a.36.36,0,0,0,0,.35,2.7,2.7,0,0,1,.48,2.36.33.33,0,0,0,.19.42.33.33,0,0,0,.43-.19h0a3.27,3.27,0,0,0-.56-3,.34.34,0,0,0-.46-.09h0A.58.58,0,0,0,309.71,383.74Z" style="fill:#263238"></path><path d="M314.52,392.78a.33.33,0,0,0,.19.06.33.33,0,0,0,.25-.4h0a3.3,3.3,0,0,0-1.94-2.34.33.33,0,0,0-.42.2h0a.33.33,0,0,0,.2.42h0a2.69,2.69,0,0,1,1.51,1.88A.34.34,0,0,0,314.52,392.78Z" style="fill:#263238"></path><path d="M323,392.7l-1.45,0c.35,2.4-2.24,3.18-3.53,3.3-2.76.26-5.69,3.36-6.24,5.84,0,0,1-.44,1.22.52s-5.15,3.32-8.46,2.91c0,0,3.49,1.37,9.66.06,5.71-1.22,10-3.15,11.45-5.16Z" style="fill:#263238"></path><path d="M314.38,406.83a6.59,6.59,0,0,1-4.77-1.69c-1.72-1.56-.62-3.57,1.5-4.17,1.89-.52,5.11-.37,6,1.71A3,3,0,0,1,314.38,406.83Z" style="fill:#eec1bb"></path><path d="M316.05,387.71s-2.47-3.94,0-7.13,8.24-.16,10.82,5.58,2.85,16.33-7.69,18c0,0,3.41-8.92,2.48-12.27l-.92,1.37a8,8,0,0,1,0-3.9l-1.7,2.34s-1.58-4.09-1.05-6.53A3.2,3.2,0,0,0,316.05,387.71Z" style="fill:#263238"></path><path d="M305.4,395.73l-.26.56h0a8,8,0,0,1-.94,1.53,2.52,2.52,0,0,1-1.71,1.12c-1.14.07-2.27-1.35-2.8-2.14-.21-.3-.33-.51-.33-.51a20.36,20.36,0,0,0,3.13-3.46l.37.28C303.69,393.77,305.59,395.31,305.4,395.73Z" style="fill:#263238"></path><path d="M305.4,395.73l-.26.56L302.39,394l.47-.88C303.69,393.77,305.59,395.31,305.4,395.73Z" style="fill:#fff"></path><path d="M304.2,397.83a2.52,2.52,0,0,1-1.71,1.12c-1.14.07-2.27-1.35-2.8-2.14C300.6,396.6,303.13,396.17,304.2,397.83Z" style="fill:#de5753"></path><path d="M293.92,414.88s-1.44,1-3.64,2.45a66,66,0,0,1-21.66,3.32h0c-.84-11.92,10.94-19.92,10.94-19.92Z" style="opacity:0.2;isolation:isolate"></path></g><g id="freepik--group--inject-6"><polygon points="243.84 138.77 241.03 165.27 252.89 165.65 252.27 142 243.84 138.77" style="fill:#ebb376"></polygon><path d="M243.32,143.65l9.07,2.74a14.36,14.36,0,0,1,.53-2.07l3.64-5.38a1.06,1.06,0,0,0-.29-1.46l-.21-.11c-2.62-1-4.58-1.58-7.85-2.88-2-.8-8-3.42-10.78-4.52s-4.23,1.5-3.2,2.2c4.67,3.14,7.9,6.21,9,8.32A19.23,19.23,0,0,1,243.32,143.65Z" style="fill:#ebb376"></path><path d="M303.4,245.85S262,215.58,258.3,208.77s-3.67-54-3.67-54l-14.45.69s-4.87,47-1.73,60.5,31,40,31,40Z" style="fill:#0057E4"></path><path d="M303.4,245.85l-34,10.13s-21.64-20.59-28.91-34.72a23.37,23.37,0,0,1-2.07-5.28c-3.14-13.52,1.73-60.5,1.73-60.5l14.45-.7c0,.51,0,47.22,3.67,54,1.56,2.9,9.92,10,19,17.25C289.68,235.82,303.4,245.85,303.4,245.85Z" style="fill:#fff;opacity:0.7000000000000001"></path><path d="M303.4,245.85l-34,10.13s-21.64-20.59-28.91-34.72A102.63,102.63,0,0,1,277.33,226C289.68,235.82,303.4,245.85,303.4,245.85Z" style="opacity:0.2;isolation:isolate"></path><polygon points="142.66 246.16 168.32 253.33 170.66 241.7 147.24 238.38 142.66 246.16" style="fill:#ebb376"></polygon><path d="M147.38,247.48l4.21-8.49a15.34,15.34,0,0,1-2-.86l-4.7-4.49a1,1,0,0,0-1.48.05.62.62,0,0,0-.14.18c-1.42,2.42-2.33,4.25-4.15,7.26-1.12,1.85-4.7,7.32-6.25,9.88s.77,4.43,1.64,3.52c3.87-4.08,7.43-6.75,9.69-7.44A19.24,19.24,0,0,1,147.38,247.48Z" style="fill:#ebb376"></path><path d="M319.14,274.77s2.17-24.18-16.91-32.27c-21.26-9-63.7,5.21-85.7,4.86-8.49-.14-57-10.74-57-10.74l-3,16.72s44.22,13.52,62,15.78,55.6-3,55.6-3l12.6,9.68Z" style="fill:#0057E4"></path><path d="M319.14,274.77l-32.48,1-1.59-1.23-11-8.45s-2.06.29-5.45.7c-11.12,1.36-36.51,4-50.15,2.33-17.79-2.26-62-15.78-62-15.78l3-16.72s48.55,10.6,57,10.74c22,.35,64.44-13.88,85.7-4.87a26,26,0,0,1,14.88,16.73A42.59,42.59,0,0,1,319.14,274.77Z" style="fill:#fff;opacity:0.7000000000000001"></path><path d="M317.11,259.22c-5.35,7.57-17.24,15.16-32,15.32l-11-8.45s-2.06.29-5.45.7c5.65-6.82,19.21-20.74,37.06-22.54A27.15,27.15,0,0,1,317.11,259.22Z" style="opacity:0.2;isolation:isolate"></path><path d="M319.32,274.31s3-19.3-9-27.79c0,0-28.38,9.51-34.92,24.9,0,0,4.91,10.77,6,17Z" style="fill:#0057E4"></path><path d="M319.32,274.31l-35.14,13.06-2.73,1c-1.11-6.2-6-17-6-17a25.72,25.72,0,0,1,2.06-3.88c8.2-12.92,32.86-21,32.86-21C322.34,255,319.32,274.31,319.32,274.31Z" style="fill:#fff;opacity:0.7000000000000001"></path><path d="M284.18,287.37l-2.73,1c-1.11-6.2-6-17-6-17a25.72,25.72,0,0,1,2.06-3.88C279.69,271.92,283,279.54,284.18,287.37Z" style="fill:#0057E4"></path><path d="M312.22,325.07c-3.39,11.71-20.42,44.41-20.42,44.41l-7.5-3.42,7.5-43.27Z" style="fill:#0057E4"></path><path d="M312.22,325.07c-3.39,11.71-20.42,44.41-20.42,44.41l-7.5-3.42,7.5-43.27Z" style="fill:#fff;opacity:0.5"></path><path d="M308.83,353.9a18.3,18.3,0,0,0-4-1.56,2.34,2.34,0,0,1,1.33-2Z" style="fill:#d58745"></path><path d="M308.77,355.48c-.4-.57-.41-1.25,0-1.52s1,0,1.42.55.42,1.26,0,1.53S309.18,356.06,308.77,355.48Z" style="fill:#2e353a"></path><path d="M305.17,347.83a10.44,10.44,0,0,1-.25-1,10,10,0,0,1,.66-5.94,9.75,9.75,0,0,1,.71-1.36,9.15,9.15,0,0,1,6.59-4.3,9.29,9.29,0,0,1,3.63.26c5,1.31,7.07,5,11.07,11a9.83,9.83,0,0,1-6.69,15.34C313.38,362.87,307.12,354.18,305.17,347.83Z" style="fill:#ebb376"></path><path d="M305.58,340.85a9.75,9.75,0,0,1,.71-1.36,9.15,9.15,0,0,1,6.59-4.3,10.62,10.62,0,0,1,.13,2.75A14.18,14.18,0,0,1,305.58,340.85Z" style="opacity:0.2;isolation:isolate"></path><path d="M313.26,325.51c-4.67-1-11.51,4.46-11.51,4.46s-3.9,4-2.06,4.89c3-1.17,5.08-.67,6.6.64a9.15,9.15,0,0,1,2.12,3,18.36,18.36,0,0,1,.81,1.88l13.23,1.38C318.59,337.93,312.22,330.53,313.26,325.51Z" style="fill:#ebb376"></path><path d="M324.22,363.38s-1,2-5.38,1c-3.66-.82-2.34-4-5.44-6s-2.84-5.92-2.84-5.92-.37-3.72,2.1-4.93c0,0,.54-3.46-1.19-5.69s.6-6.17,5.35-8.89,4.6,1.33,4.6,1.33a22.53,22.53,0,0,1,6.39,3.35,21.1,21.1,0,0,1,5.69,6.58,11.47,11.47,0,0,1,1.5,8.75C334,358.33,327.51,364.54,324.22,363.38Z" style="fill:#263238"></path><path d="M314.63,348.16a4.63,4.63,0,0,0-3.68-1.53c-1.57.21-1.35,2.47-.07,4.21,1.15,1.55,3.37,3.36,4.53,2.26S316.05,349.56,314.63,348.16Z" style="fill:#ebb376"></path><path d="M315,360s-2.07,7,2.78,10.44,2.51-1.48,2.51-1.48,5.12.71,6.56-1.09-2.53-1.6-2.53-1.6,14.54-5.43,10.85-14.25S315,360,315,360Z" style="fill:#263238"></path><path d="M310.75,357.8a.35.35,0,0,1-.32-.2.36.36,0,0,1,.15-.48,1,1,0,0,0,.39-.78.36.36,0,1,1,.72.1,1.62,1.62,0,0,1-.78,1.32A.32.32,0,0,1,310.75,357.8Z" style="fill:#2e353a"></path><path d="M317.41,322.79l3,4.35s-11.73,14.44-20,10.09S317.41,322.79,317.41,322.79Z" style="fill:#0057E4"></path><path d="M296.08,346.61s15.86-13.27,21.33-23.82c0,0,8.76-28.72,2.17-47.22l-39.09,9.06S273,329,296.08,346.61Z" style="fill:#0057E4"></path><path d="M317.41,322.79c-5.47,10.55-21.33,23.82-21.33,23.82a32.69,32.69,0,0,1-4.4-4.06c-6-6.68-9.25-15.57-10.86-24.37-3.13-16.93-.33-33.55-.33-33.55l39.09-9.06C326.17,294.07,317.41,322.79,317.41,322.79Z" style="fill:#fff;opacity:0.7000000000000001"></path><path d="M281.28,320.53c-5.4-17.08-.79-35.9-.79-35.9l2.94-.68C283.58,286.92,279.4,305.14,281.28,320.53Z" style="fill:#0057E4"></path><path d="M291.68,342.55c-6-6.68-9.25-15.57-10.86-24.37,3.85,2.15,9.88,7.22,12.28,18.52C293.93,340.6,293.21,342.34,291.68,342.55Z" style="opacity:0.2;isolation:isolate"></path><path d="M282.66,325S275.49,344,280.58,382L288.72,370s3.71-15.41,7.36-23.4C296.08,346.61,293.49,329.46,282.66,325Z" style="fill:#0057E4"></path><path d="M282.66,325S275.49,344,280.58,382L288.72,370s3.71-15.41,7.36-23.4C296.08,346.61,293.49,329.46,282.66,325Z" style="fill:#fff;opacity:0.7000000000000001"></path><polygon points="280.2 289.07 321.55 280.08 320.07 273.15 280.2 283.64 280.2 289.07" style="fill:#0057E4"></polygon></g><path d="M288,375.22s3-13.55,5.26-19.26c0,0-1.22-1.71-1.05-2.81s1.32-8.63,1.32-8.63l7.42-.68s-1.07,9.21-1.2,10-2.7,2.78-2.7,2.78-1.55,8-2.35,18Z" style="fill:#eec1bb"></path><path d="M279,406.87s1-22.1,8.79-39.49l7.91,1.38s-.6,35.13.56,43.15S279.28,416.93,279,406.87Z" style="fill:#0057E4"></path></g></svg>