<svg xmlns="http://www.w3.org/2000/svg" width="48.004" height="46.804" viewBox="0 0 48.004 46.804">
  <g id="Layer_2" data-name="Layer 2" transform="translate(-11.692 -11.4)">
    <g id="Surfaces" transform="translate(11.692 11.4)">
      <g id="Video_Audio_Surface" data-name="Video Audio Surface">
        <g id="Outline_no_shadow" data-name="Outline no shadow">
          <rect id="Rectangle_150918" data-name="Rectangle 150918" width="48.004" height="46.804" rx="5.667" fill="#00005b"/>
        </g>
      </g>
    </g>
    <g id="Outlined_Mnemonics_Logos" data-name="Outlined Mnemonics Logos" transform="translate(23.102 23.321)">
      <g id="Pr">
        <path id="Path_102601" data-name="Path 102601" d="M19.3,40.247V19.67q0-.225.194-.225c.342,0,.656,0,1.128-.017l1.53-.032c.548-.011,1.127-.023,1.739-.033s1.218-.015,1.82-.016a12.1,12.1,0,0,1,4.122.612A7.157,7.157,0,0,1,32.519,21.6a6.294,6.294,0,0,1,1.466,2.271,7.512,7.512,0,0,1,.45,2.592,7.146,7.146,0,0,1-1.191,4.25,6.733,6.733,0,0,1-3.219,2.432,12.85,12.85,0,0,1-4.509.675q-.709,0-1-.015c-.194-.01-.483-.016-.87-.016v6.425a.256.256,0,0,1-.218.29.289.289,0,0,1-.072,0H19.523C19.373,40.5,19.3,40.419,19.3,40.247Zm4.349-16.938V30.02c.279.021.537.032.773.032h1.064a7.506,7.506,0,0,0,2.3-.368,3.464,3.464,0,0,0,1.641-1.062,3.091,3.091,0,0,0,.629-2.061,3.272,3.272,0,0,0-.467-1.772,3.007,3.007,0,0,0-1.4-1.143,5.964,5.964,0,0,0-2.351-.4q-.774,0-1.368.016c-.4.011-.672.027-.822.048Z" transform="translate(-19.298 -19.347)" fill="#99f"/>
        <path id="Path_102602" data-name="Path 102602" d="M31.318,22.869h3.509a.437.437,0,0,1,.419.321,2.069,2.069,0,0,1,.12.492,5.212,5.212,0,0,1,.1.629q.032.338.032.725a7.507,7.507,0,0,1,2.142-1.722,6.269,6.269,0,0,1,3.036-.783.257.257,0,0,1,.29.218.289.289,0,0,1,0,.072v3.9c0,.15-.107.225-.323.225a8.345,8.345,0,0,0-2.166.2,7.878,7.878,0,0,0-1.674.531,3.172,3.172,0,0,0-1.029.741V38.625c0,.194-.086.29-.258.29H31.566a.284.284,0,0,1-.321-.242.245.245,0,0,1,0-.081V27.515c0-.473-.006-.971-.017-1.5s-.027-1.047-.048-1.562a11.8,11.8,0,0,0-.089-1.362.185.185,0,0,1,.134-.225.2.2,0,0,1,.093,0Z" transform="translate(-13.403 -17.756)" fill="#99f"/>
      </g>
    </g>
  </g>
</svg>
