<svg id="visual" viewBox="0 0 1920 1080" width="1920" height="1080" xmlns="http://www.w3.org/2000/svg" xmlns:xlink="http://www.w3.org/1999/xlink" version="1.1"><rect x="0" y="0" width="1920" height="1080" fill="#0C2239"></rect><defs><linearGradient id="grad1_0" x1="43.8%" y1="100%" x2="100%" y2="0%"><stop offset="14.444444444444446%" stop-color="#013976" stop-opacity="1"></stop><stop offset="85.55555555555554%" stop-color="#013976" stop-opacity="1"></stop></linearGradient></defs><defs><linearGradient id="grad1_1" x1="43.8%" y1="100%" x2="100%" y2="0%"><stop offset="14.444444444444446%" stop-color="#013976" stop-opacity="1"></stop><stop offset="85.55555555555554%" stop-color="#003466" stop-opacity="1"></stop></linearGradient></defs><defs><linearGradient id="grad1_2" x1="43.8%" y1="100%" x2="100%" y2="0%"><stop offset="14.444444444444446%" stop-color="#022e57" stop-opacity="1"></stop><stop offset="85.55555555555554%" stop-color="#003466" stop-opacity="1"></stop></linearGradient></defs><defs><linearGradient id="grad1_3" x1="43.8%" y1="100%" x2="100%" y2="0%"><stop offset="14.444444444444446%" stop-color="#022e57" stop-opacity="1"></stop><stop offset="85.55555555555554%" stop-color="#072848" stop-opacity="1"></stop></linearGradient></defs><defs><linearGradient id="grad1_4" x1="43.8%" y1="100%" x2="100%" y2="0%"><stop offset="14.444444444444446%" stop-color="#0c2239" stop-opacity="1"></stop><stop offset="85.55555555555554%" stop-color="#072848" stop-opacity="1"></stop></linearGradient></defs><defs><linearGradient id="grad2_0" x1="0%" y1="100%" x2="56.3%" y2="0%"><stop offset="14.444444444444446%" stop-color="#013976" stop-opacity="1"></stop><stop offset="85.55555555555554%" stop-color="#013976" stop-opacity="1"></stop></linearGradient></defs><defs><linearGradient id="grad2_1" x1="0%" y1="100%" x2="56.3%" y2="0%"><stop offset="14.444444444444446%" stop-color="#003466" stop-opacity="1"></stop><stop offset="85.55555555555554%" stop-color="#013976" stop-opacity="1"></stop></linearGradient></defs><defs><linearGradient id="grad2_2" x1="0%" y1="100%" x2="56.3%" y2="0%"><stop offset="14.444444444444446%" stop-color="#003466" stop-opacity="1"></stop><stop offset="85.55555555555554%" stop-color="#022e57" stop-opacity="1"></stop></linearGradient></defs><defs><linearGradient id="grad2_3" x1="0%" y1="100%" x2="56.3%" y2="0%"><stop offset="14.444444444444446%" stop-color="#072848" stop-opacity="1"></stop><stop offset="85.55555555555554%" stop-color="#022e57" stop-opacity="1"></stop></linearGradient></defs><defs><linearGradient id="grad2_4" x1="0%" y1="100%" x2="56.3%" y2="0%"><stop offset="14.444444444444446%" stop-color="#072848" stop-opacity="1"></stop><stop offset="85.55555555555554%" stop-color="#0c2239" stop-opacity="1"></stop></linearGradient></defs><g transform="translate(1920, 1080)"><path d="M-486 0C-479.1 -49.5 -472.3 -99.1 -459.4 -149.3C-446.5 -199.4 -427.5 -250.2 -393.2 -285.7C-358.9 -321.1 -309.2 -341.2 -266.3 -366.5C-223.4 -391.8 -187.2 -422.4 -144 -443.2C-100.8 -464 -50.4 -475 0 -486L0 0Z" fill="#0a2540"></path><path d="M-388.8 0C-383.3 -39.6 -377.8 -79.3 -367.5 -119.4C-357.2 -159.5 -342 -200.2 -314.5 -228.5C-287.1 -256.9 -247.3 -272.9 -213 -293.2C-178.7 -313.4 -149.8 -337.9 -115.2 -354.6C-80.6 -371.2 -40.3 -380 0 -388.8L0 0Z" fill="#052b4f"></path><path d="M-291.6 0C-287.5 -29.7 -283.4 -59.4 -275.6 -89.6C-267.9 -119.7 -256.5 -150.1 -235.9 -171.4C-215.3 -192.7 -185.5 -204.7 -159.8 -219.9C-134 -235.1 -112.3 -253.4 -86.4 -265.9C-60.5 -278.4 -30.2 -285 0 -291.6L0 0Z" fill="#01315f"></path><path d="M-194.4 0C-191.7 -19.8 -188.9 -39.6 -183.7 -59.7C-178.6 -79.8 -171 -100.1 -157.3 -114.3C-143.5 -128.4 -123.7 -136.5 -106.5 -146.6C-89.3 -156.7 -74.9 -169 -57.6 -177.3C-40.3 -185.6 -20.2 -190 0 -194.4L0 0Z" fill="#00366e"></path><path d="M-97.2 0C-95.8 -9.9 -94.5 -19.8 -91.9 -29.9C-89.3 -39.9 -85.5 -50 -78.6 -57.1C-71.8 -64.2 -61.8 -68.2 -53.3 -73.3C-44.7 -78.4 -37.4 -84.5 -28.8 -88.6C-20.2 -92.8 -10.1 -95 0 -97.2L0 0Z" fill="#013976"></path></g><g transform="translate(0, 0)"><path d="M486 0C485.4 53.7 484.9 107.4 462.2 150.2C439.6 193 394.8 224.9 361.6 262.7C328.4 300.5 306.8 344.2 272.1 374.6C237.5 405 190 422.1 142.5 438.4C94.9 454.8 47.5 470.4 0 486L0 0Z" fill="#0a2540"></path><path d="M388.8 0C388.3 42.9 387.9 85.9 369.8 120.1C351.7 154.4 315.9 180 289.3 210.2C262.7 240.4 245.4 275.4 217.7 299.7C190 324 152 337.7 114 350.7C76 363.8 38 376.3 0 388.8L0 0Z" fill="#052b4f"></path><path d="M291.6 0C291.3 32.2 290.9 64.4 277.3 90.1C263.7 115.8 236.9 135 217 157.6C197.1 180.3 184.1 206.5 163.3 224.7C142.5 243 114 253.2 85.5 263.1C57 272.9 28.5 282.2 0 291.6L0 0Z" fill="#01315f"></path><path d="M194.4 0C194.2 21.5 193.9 42.9 184.9 60.1C175.8 77.2 157.9 90 144.7 105.1C131.4 120.2 122.7 137.7 108.9 149.8C95 162 76 168.8 57 175.4C38 181.9 19 188.2 0 194.4L0 0Z" fill="#00366e"></path><path d="M97.2 0C97.1 10.7 97 21.5 92.4 30C87.9 38.6 79 45 72.3 52.5C65.7 60.1 61.4 68.8 54.4 74.9C47.5 81 38 84.4 28.5 87.7C19 91 9.5 94.1 0 97.2L0 0Z" fill="#013976"></path></g></svg>