<svg id="visual" viewBox="0 0 1080 1920" width="1080" height="1920" xmlns="http://www.w3.org/2000/svg" xmlns:xlink="http://www.w3.org/1999/xlink" version="1.1"><rect x="0" y="0" width="1080" height="1920" fill="#0C2239"></rect><defs><linearGradient id="grad1_0" x1="0%" y1="100%" x2="100%" y2="0%"><stop offset="30%" stop-color="#013976" stop-opacity="1"></stop><stop offset="70%" stop-color="#013976" stop-opacity="1"></stop></linearGradient></defs><defs><linearGradient id="grad1_1" x1="0%" y1="100%" x2="100%" y2="0%"><stop offset="30%" stop-color="#013976" stop-opacity="1"></stop><stop offset="70%" stop-color="#003466" stop-opacity="1"></stop></linearGradient></defs><defs><linearGradient id="grad1_2" x1="0%" y1="100%" x2="100%" y2="0%"><stop offset="30%" stop-color="#022e57" stop-opacity="1"></stop><stop offset="70%" stop-color="#003466" stop-opacity="1"></stop></linearGradient></defs><defs><linearGradient id="grad1_3" x1="0%" y1="100%" x2="100%" y2="0%"><stop offset="30%" stop-color="#022e57" stop-opacity="1"></stop><stop offset="70%" stop-color="#072848" stop-opacity="1"></stop></linearGradient></defs><defs><linearGradient id="grad1_4" x1="0%" y1="100%" x2="100%" y2="0%"><stop offset="30%" stop-color="#0c2239" stop-opacity="1"></stop><stop offset="70%" stop-color="#072848" stop-opacity="1"></stop></linearGradient></defs><defs><linearGradient id="grad2_0" x1="0%" y1="100%" x2="100%" y2="0%"><stop offset="30%" stop-color="#013976" stop-opacity="1"></stop><stop offset="70%" stop-color="#013976" stop-opacity="1"></stop></linearGradient></defs><defs><linearGradient id="grad2_1" x1="0%" y1="100%" x2="100%" y2="0%"><stop offset="30%" stop-color="#003466" stop-opacity="1"></stop><stop offset="70%" stop-color="#013976" stop-opacity="1"></stop></linearGradient></defs><defs><linearGradient id="grad2_2" x1="0%" y1="100%" x2="100%" y2="0%"><stop offset="30%" stop-color="#003466" stop-opacity="1"></stop><stop offset="70%" stop-color="#022e57" stop-opacity="1"></stop></linearGradient></defs><defs><linearGradient id="grad2_3" x1="0%" y1="100%" x2="100%" y2="0%"><stop offset="30%" stop-color="#072848" stop-opacity="1"></stop><stop offset="70%" stop-color="#022e57" stop-opacity="1"></stop></linearGradient></defs><defs><linearGradient id="grad2_4" x1="0%" y1="100%" x2="100%" y2="0%"><stop offset="30%" stop-color="#072848" stop-opacity="1"></stop><stop offset="70%" stop-color="#0c2239" stop-opacity="1"></stop></linearGradient></defs><g transform="translate(1080, 1920)"><path d="M-594 0C-590.1 -62.7 -586.1 -125.4 -564.9 -183.6C-543.8 -241.7 -505.4 -295.3 -460.3 -334.4C-415.3 -373.6 -363.7 -398.3 -318.6 -438.5C-273.5 -478.7 -234.9 -534.5 -182.9 -563C-130.9 -591.5 -65.5 -592.8 0 -594L0 0Z" fill="#0a2540"></path><path d="M-475.2 0C-472 -50.2 -468.9 -100.3 -451.9 -146.8C-435 -193.4 -404.3 -236.3 -368.3 -267.6C-332.2 -298.9 -290.9 -318.6 -254.9 -350.8C-218.8 -383 -188 -427.6 -146.4 -450.4C-104.7 -473.2 -52.4 -474.2 0 -475.2L0 0Z" fill="#052b4f"></path><path d="M-356.4 0C-354 -37.6 -351.7 -75.2 -339 -110.1C-326.3 -145 -303.2 -177.2 -276.2 -200.7C-249.2 -224.2 -218.2 -239 -191.1 -263.1C-164.1 -287.2 -141 -320.7 -109.8 -337.8C-78.6 -354.9 -39.3 -355.7 0 -356.4L0 0Z" fill="#01315f"></path><path d="M-237.6 0C-236 -25.1 -234.4 -50.2 -226 -73.4C-217.5 -96.7 -202.1 -118.1 -184.1 -133.8C-166.1 -149.4 -145.5 -159.3 -127.4 -175.4C-109.4 -191.5 -94 -213.8 -73.2 -225.2C-52.4 -236.6 -26.2 -237.1 0 -237.6L0 0Z" fill="#00366e"></path><path d="M-118.8 0C-118 -12.5 -117.2 -25.1 -113 -36.7C-108.8 -48.3 -101.1 -59.1 -92.1 -66.9C-83.1 -74.7 -72.7 -79.7 -63.7 -87.7C-54.7 -95.7 -47 -106.9 -36.6 -112.6C-26.2 -118.3 -13.1 -118.6 0 -118.8L0 0Z" fill="#013976"></path></g><g transform="translate(0, 0)"><path d="M594 0C586.4 62.9 578.8 125.8 556.4 180.8C533.9 235.7 496.7 282.8 462.8 336.2C428.8 389.7 398.2 449.5 349.1 480.6C300.1 511.6 232.8 513.7 171.5 527.8C110.3 541.9 55.1 568 0 594L0 0Z" fill="#0a2540"></path><path d="M475.2 0C469.1 50.3 463 100.6 445.1 144.6C427.2 188.6 397.4 226.2 370.2 269C343 311.7 318.5 359.6 279.3 384.4C240.1 409.3 186.2 411 137.2 422.3C88.2 433.5 44.1 454.4 0 475.2L0 0Z" fill="#052b4f"></path><path d="M356.4 0C351.8 37.7 347.3 75.5 333.8 108.5C320.4 141.4 298 169.7 277.7 201.7C257.3 233.8 238.9 269.7 209.5 288.3C180.1 306.9 139.7 308.2 102.9 316.7C66.2 325.2 33.1 340.8 0 356.4L0 0Z" fill="#01315f"></path><path d="M237.6 0C234.6 25.2 231.5 50.3 222.5 72.3C213.6 94.3 198.7 113.1 185.1 134.5C171.5 155.9 159.3 179.8 139.7 192.2C120.1 204.6 93.1 205.5 68.6 211.1C44.1 216.8 22.1 227.2 0 237.6L0 0Z" fill="#00366e"></path><path d="M118.8 0C117.3 12.6 115.8 25.2 111.3 36.2C106.8 47.1 99.3 56.6 92.6 67.2C85.8 77.9 79.6 89.9 69.8 96.1C60 102.3 46.6 102.7 34.3 105.6C22.1 108.4 11 113.6 0 118.8L0 0Z" fill="#013976"></path></g></svg>