<svg width="32" height="25" viewBox="0 0 32 25" fill="none" xmlns="http://www.w3.org/2000/svg">
<path d="M27.107 2.085C25.0356 1.11097 22.8208 0.403078 20.5052 0C20.2208 0.516731 19.8886 1.21175 19.6595 1.76463C17.198 1.39259 14.7591 1.39259 12.3429 1.76463C12.1139 1.21175 11.7741 0.516731 11.4871 0C9.16908 0.403078 6.95167 1.11357 4.88026 2.09016C0.70219 8.43549 -0.430415 14.6232 0.135889 20.7231C2.907 22.8029 5.59255 24.0663 8.23277 24.893C8.88465 23.9913 9.46605 23.0328 9.9669 22.0226C9.013 21.6584 8.09937 21.2088 7.2361 20.6869C7.46512 20.5164 7.68914 20.3381 7.90557 20.1547C13.1709 22.6298 18.8919 22.6298 24.0943 20.1547C24.3133 20.3381 24.5373 20.5164 24.7638 20.6869C23.898 21.2114 22.9818 21.6609 22.0279 22.0252C22.5288 23.0328 23.1077 23.9939 23.7621 24.8956C26.4048 24.0689 29.0929 22.8055 31.864 20.7231C32.5285 13.6518 30.7289 7.52089 27.107 2.085ZM10.6842 16.9717C9.10363 16.9717 7.8074 15.4887 7.8074 13.6828C7.8074 11.8768 9.07595 10.3913 10.6842 10.3913C12.2926 10.3913 13.5887 11.8742 13.5611 13.6828C13.5636 15.4887 12.2926 16.9717 10.6842 16.9717ZM21.3157 16.9717C19.735 16.9717 18.4388 15.4887 18.4388 13.6828C18.4388 11.8768 19.7073 10.3913 21.3157 10.3913C22.9239 10.3913 24.2202 11.8742 24.1925 13.6828C24.1925 15.4887 22.9239 16.9717 21.3157 16.9717Z" fill="#5865F2"/>
</svg>
