<svg width="32" height="31" viewBox="0 0 32 31" fill="none" xmlns="http://www.w3.org/2000/svg">
<path d="M16.0001 0C7.16466 0 0 7.10603 0 15.8721C0 22.8849 4.58452 28.8344 10.9419 30.9332C11.7415 31.0801 12.0351 30.5888 12.0351 30.1696C12.0351 29.7911 12.0202 28.5408 12.0133 27.2146C7.56209 28.1747 6.62283 25.3418 6.62283 25.3418C5.89499 23.5072 4.8463 23.0194 4.8463 23.0194C3.39461 22.0343 4.95573 22.0546 4.95573 22.0546C6.56242 22.1665 7.40842 23.6902 7.40842 23.6902C8.83547 26.1167 11.1514 25.4152 12.0645 25.0096C12.2081 23.9838 12.6227 23.2836 13.0803 22.8872C9.52648 22.4859 5.7906 21.1249 5.7906 15.0431C5.7906 13.3103 6.41563 11.8944 7.43916 10.7828C7.27303 10.3831 6.72537 8.76873 7.59415 6.58246C7.59415 6.58246 8.93774 6.15588 11.9953 8.20941C13.2716 7.85774 14.6404 7.68138 16.0001 7.67533C17.3599 7.68138 18.7297 7.85774 20.0084 8.20941C23.0623 6.15588 24.404 6.58246 24.404 6.58246C25.2749 8.76873 24.727 10.3831 24.5608 10.7828C25.5868 11.8944 26.2075 13.3103 26.2075 15.0431C26.2075 21.1394 22.4645 22.4817 18.9017 22.8746C19.4756 23.3672 19.9869 24.3331 19.9869 25.8139C19.9869 27.9376 19.9684 29.6468 19.9684 30.1696C19.9684 30.592 20.2564 31.0869 21.0674 30.931C27.4213 28.8299 32 22.8825 32 15.8721C32 7.10603 24.8364 0 16.0001 0ZM5.99257 22.6102C5.95733 22.689 5.83227 22.7127 5.71834 22.6585C5.60229 22.6068 5.53711 22.4993 5.57474 22.4202C5.60918 22.3389 5.7345 22.3163 5.85029 22.3707C5.9666 22.4225 6.03284 22.5311 5.99257 22.6102ZM6.7796 23.3068C6.70329 23.377 6.55412 23.3444 6.45291 23.2335C6.34825 23.1228 6.32864 22.9749 6.40601 22.9036C6.4847 22.8335 6.62937 22.8663 6.73429 22.977C6.83895 23.0889 6.85935 23.2359 6.7796 23.3068ZM7.31953 24.1981C7.2215 24.2657 7.0612 24.2024 6.96211 24.0612C6.86407 23.9201 6.86407 23.7508 6.96422 23.683C7.06358 23.6152 7.2215 23.6762 7.32191 23.8162C7.41968 23.9598 7.41968 24.129 7.31953 24.1981ZM8.23267 25.2304C8.14497 25.3264 7.95818 25.3006 7.82146 25.1697C7.68156 25.0417 7.64261 24.8601 7.73058 24.7642C7.81934 24.668 8.00719 24.695 8.14497 24.8249C8.28381 24.9526 8.3262 25.1355 8.23267 25.2304ZM9.41281 25.5789C9.37413 25.7032 9.19423 25.7597 9.013 25.7069C8.83203 25.6525 8.7136 25.5069 8.75016 25.3813C8.78778 25.2561 8.96848 25.1973 9.15104 25.2538C9.33174 25.3079 9.45044 25.4525 9.41281 25.5789ZM10.7559 25.7267C10.7604 25.8576 10.6067 25.9662 10.4165 25.9685C10.2252 25.9727 10.0704 25.8668 10.0683 25.738C10.0683 25.6058 10.2185 25.4983 10.4098 25.4952C10.6001 25.4915 10.7559 25.5966 10.7559 25.7267ZM12.0753 25.6766C12.0981 25.8043 11.9658 25.9355 11.7769 25.9704C11.5912 26.0041 11.4192 25.9252 11.3957 25.7985C11.3726 25.6676 11.5072 25.5365 11.6927 25.5026C11.8819 25.47 12.0512 25.5467 12.0753 25.6766Z" fill="#161614"/>
</svg>
