<svg width="32" height="25" viewBox="0 0 32 25" fill="none" xmlns="http://www.w3.org/2000/svg">
<path d="M7.27273 24.2609V11.7661L3.43833 8.22093L0 6.25366V22.0559C0 23.276 0.978182 24.2609 2.18182 24.2609H7.27273Z" fill="#4285F4"/>
<path d="M24.7273 24.2609H29.8182C31.0254 24.2609 32 23.2723 32 22.0559V6.25366L28.1055 8.5071L24.7273 11.7661V24.2609Z" fill="#34A853"/>
<path d="M7.27273 11.7661L6.75098 6.88392L7.27273 2.21121L16 8.82611L24.7273 2.21121L25.3109 6.63161L24.7273 11.7661L16 18.381L7.27273 11.7661Z" fill="#EA4335"/>
<path d="M24.7273 2.21122V11.7661L32 6.25366V3.3137C32 0.586896 28.92 -0.967605 26.7636 0.667745L24.7273 2.21122Z" fill="#FBBC04"/>
<path d="M0 6.25366L3.34485 8.78891L7.27273 11.7661V2.21122L5.23636 0.667745C3.07636 -0.967605 0 0.586896 0 3.3137V6.25366Z" fill="#C5221F"/>
</svg>
