<svg width="32" height="32" viewBox="0 0 32 32" fill="none" xmlns="http://www.w3.org/2000/svg">
<path d="M27.2653 27.2658H22.5239V19.8405C22.5239 18.0698 22.4923 15.7904 20.0579 15.7904C17.5884 15.7904 17.2105 17.7196 17.2105 19.7115V27.2654H12.4691V11.9957H17.0209V14.0825H17.0846C18.0127 12.4955 19.7385 11.5477 21.5756 11.6159C26.3812 11.6159 27.2673 14.7769 27.2673 18.8892L27.2653 27.2658ZM7.11926 9.90849C5.59966 9.90876 4.36755 8.67707 4.36728 7.15743C4.367 5.63779 5.59867 4.40565 7.11828 4.40538C8.63788 4.40511 9.86999 5.6368 9.87026 7.15644C9.87039 7.8862 9.58063 8.58612 9.06472 9.10223C8.54881 9.61834 7.84901 9.90836 7.11926 9.90849ZM9.48996 27.2658H4.74363V11.9957H9.48996V27.2658ZM29.6291 0.00220299H2.36107C1.07233 -0.0123408 0.0154842 1.01999 -0.000244141 2.30875V29.6904C0.0149457 30.9798 1.07171 32.0132 2.36107 31.9996H29.6291C30.921 32.0156 31.9819 30.9824 31.9998 29.6904V2.30677C31.9813 1.01547 30.9204 -0.0168033 29.6291 1.96293e-05" fill="#0A66C2"/>
</svg>
