<svg width="32" height="32" viewBox="0 0 32 32" fill="none" xmlns="http://www.w3.org/2000/svg">
<path d="M16 0C7.16337 0 0 7.16337 0 16C0 24.8366 7.16337 32 16 32C24.8366 32 32 24.8366 32 16C32 7.16337 24.8366 0 16 0Z" fill="#40B3E0"/>
<path d="M23.7853 9.20384L20.9276 23.6122C20.9276 23.6122 20.528 24.6115 19.4288 24.1318L12.8341 19.0758L10.4361 17.9168L6.39932 16.5578C6.39932 16.5578 5.77982 16.3381 5.71982 15.8585C5.65995 15.3788 6.41932 15.1191 6.41932 15.1191L22.4663 8.82409C22.4663 8.82409 23.7853 8.24459 23.7853 9.20384Z" fill="white"/>
<path d="M12.3272 23.4504C12.3272 23.4504 12.1347 23.4324 11.8948 22.6729C11.6551 21.9136 10.4361 17.9168 10.4361 17.9168L20.1282 11.7618C20.1282 11.7618 20.6878 11.4221 20.6678 11.7618C20.6678 11.7618 20.7677 11.8217 20.468 12.1014C20.1682 12.3813 12.8541 18.9559 12.8541 18.9559" fill="#D2E5F1"/>
<path d="M15.3627 21.0144L12.7542 23.3927C12.7542 23.3927 12.5503 23.5474 12.3272 23.4504L12.8267 19.0328" fill="#B5CFE4"/>
</svg>
