<svg width="32" height="33" viewBox="0 0 32 33" fill="none" xmlns="http://www.w3.org/2000/svg">
<g clip-path="url(#clip0_852_18)">
<path fill-rule="evenodd" clip-rule="evenodd" d="M27.3374 4.67249C24.3297 1.66089 20.3294 0.00152796 16.0672 0C7.28453 0 0.136752 7.14702 0.133696 15.932C0.132168 18.7404 0.866352 21.4815 2.26061 23.8972L0 32.1543L8.44654 29.9388C10.7736 31.2085 13.394 31.877 16.0604 31.8778H16.0672C24.8484 31.8778 31.997 24.73 32 15.945C32.0015 11.6874 30.346 7.68486 27.3374 4.67325V4.67249ZM16.0672 29.187H16.0619C13.6859 29.1863 11.355 28.5476 9.32133 27.3412L8.83771 27.054L3.82524 28.3688L5.16297 23.4816L4.8482 22.9804C3.5227 20.8719 2.82213 18.4348 2.82366 15.9328C2.82672 8.63143 8.76741 2.69073 16.0726 2.69073C19.6098 2.69226 22.9347 4.07124 25.4351 6.5748C27.9356 9.0776 29.3116 12.4055 29.31 15.9435C29.3069 23.2456 23.3663 29.1863 16.0672 29.1863V29.187ZM23.3311 19.2691C22.9331 19.0697 20.9758 18.107 20.6106 17.9741C20.2454 17.8412 19.9804 17.7748 19.7152 18.1735C19.4501 18.5724 18.6869 19.4692 18.4547 19.7343C18.2224 20.0002 17.9901 20.0331 17.5921 19.8336C17.1941 19.6342 15.9114 19.214 14.3903 17.858C13.2069 16.8021 12.4077 15.4988 12.1756 15.1C11.9433 14.7012 12.1511 14.4858 12.3497 14.2879C12.5284 14.1092 12.7477 13.8227 12.9471 13.5904C13.1466 13.3581 13.2123 13.1916 13.3452 12.9265C13.4781 12.6606 13.4116 12.4284 13.3124 12.229C13.213 12.0296 12.417 10.07 12.0846 9.27315C11.7614 8.49697 11.433 8.6024 11.1892 8.58941C10.957 8.57795 10.6919 8.57566 10.426 8.57566C10.1602 8.57566 9.72924 8.67498 9.36409 9.07378C8.99893 9.47253 7.97059 10.4359 7.97059 12.3948C7.97059 14.3536 9.39698 16.2476 9.59636 16.5134C9.79573 16.7793 12.4039 20.8001 16.3972 22.5252C17.3469 22.9354 18.0887 23.1806 18.667 23.364C19.6205 23.6673 20.4884 23.6245 21.1744 23.5221C21.9392 23.4076 23.5298 22.5588 23.8613 21.629C24.1929 20.6992 24.1929 19.9016 24.0936 19.7358C23.9943 19.57 23.7284 19.47 23.3304 19.2706L23.3311 19.2691Z" fill="#25D366"/>
</g>
<defs>
<clipPath id="clip0_852_18">
<rect width="32" height="32.1778" fill="white"/>
</clipPath>
</defs>
</svg>
